<svg xmlns="http://www.w3.org/2000/svg" xmlns:xlink="http://www.w3.org/1999/xlink" viewBox="0 0 102.156 70.559">
  <defs>
    <style>
      .cls-1 {
        fill: #fff;
      }

      .cls-2 {
        fill: rgba(0,0,0,0);
      }

      .cls-3 {
        clip-path: url(#clip-path);
      }

      .cls-4 {
        clip-path: url(#clip-path-2);
      }
    </style>
    <clipPath id="clip-path">
      <path id="Path_200" data-name="Path 200" class="cls-1" d="M0-42.391H87.873V13.487H0Z" transform="translate(0 42.391)"/>
    </clipPath>
    <clipPath id="clip-path-2">
      <path id="Path_214" data-name="Path 214" class="cls-2" d="M0-16.805H102.156v7.7H0Z" transform="translate(0 16.805)"/>
    </clipPath>
  </defs>
  <g id="LOGO" transform="translate(-85 -11)">
    <g id="Group_4" data-name="Group 4" transform="translate(91.864 11)">
      <g id="Group_3" data-name="Group 3" class="cls-3" transform="translate(0 0)">
        <g id="Group_1" data-name="Group 1" transform="translate(0 19.113)">
          <path id="Path_198" data-name="Path 198" class="cls-1" d="M20.308,5.106c-.956-1.334-1.868-3.239-3.388-4.039a19.828,19.828,0,0,1-4.5-2.922c-1.6-1.42-4.818-2.2-6.477-3.017C3.466-6.085,2.256-7.108.733-7.374a6.632,6.632,0,0,1-2.976-1.77L-7.792-6.892s5.389.082,5.509.334c.158.349,2.858,2.311,1.406,3.287S-7.62-4.25-9.908-5.849s-11.885-7.18-14.629-9.312-7.776,0-10.75,1.863S-44.887-7.177-45.8-6.91-59.79,7.2-59.79,7.2s-6.173,11.075-3.257,8.743S-59,9.648-56.6,7.654c1.322-1.1,1.915-1.689,3.123-1.838l.08-.082S-50.78,1.521-48.489.026s3.175-3.365,5.067-4.264,3.152-.877,4.745-2.171,1.6-2.573,3.39-3.274c1.6-.62,3.742-1.24,4.686-1.577-3.071,2.288-9.024,7.347-6.75,10.624,3.016,4.342,17.733,3.858,7.842,10.978a176.313,176.313,0,0,1-15.8,10.375s6.153-1.087,8.567-2.656,4.317-1.613,5.887-2.942a26.286,26.286,0,0,1,5.306-3.7c1.81-.842,3.46-2.491,3.46-4.181s1.608-2.611-1.529-4.184-5.72-2.969-7.4-3.377c-3.642-.888-4.5-2.088-3.025-4.351,1.827-2.8,1.773-3.009,1.96-3.168,1.312-1.115,2.776-3.052,5.336-3.46.145.037.293.07.435.119,1.294-.65,7.341,4.88,8.92,5.867,1.6,1,5.662,2.261,8.348,3.591A75,75,0,0,0,.25,1.393L4.841-2.322A7.734,7.734,0,0,1,6.723.2c.287,1.064.112,2.2-1.424,3.655a26.539,26.539,0,0,0-2.518,2.8C1.3,8.317,1.524,8.383.209,9.116c-1.13.631-3.62,1.951-4.068,2.178.523-.219,4.152-.79,5.1-1.114A4.437,4.437,0,0,0,3.35,8.054c.457-.8,1.95-.935,3.431-2.331S7.529,4.463,8.037,2.4,7.983,1.4,9.526,1s4.836,1.71,5.6,2.149,1.028.091,1.867.492S19.32,5.859,20.5,6.7a38.721,38.721,0,0,1,3.543,3.322c-.571-1.992-2.781-3.589-3.734-4.918" transform="translate(63.83 16.049)"/>
        </g>
        <g id="Group_2" data-name="Group 2" transform="translate(65.148 0.001)">
          <path id="Path_199" data-name="Path 199" class="cls-1" d="M3.185,2.741,5.4,1.9,5.07,1.047,2.2,2.137-.18.669a1.828,1.828,0,0,0,.043-.4A1.946,1.946,0,0,0-.171-.1L1.975-1.4,4.7.019,5.123-.8,2.9-1.956l2.965-1.8L5.187-4.863,2.4-3.175,2.66-5.527l-.912-.1L1.407-2.574-.845-1.211a1.923,1.923,0,0,0-.592-.327V-4.076l2.619-1.6L.7-6.457l-2.139,1.31V-8.614h-1.3v3.257L-4.616-6.8l-.559.725L-2.74-4.2v2.682a1.9,1.9,0,0,0-.5.3L-5.493-2.611l-.328-3.214-.913.094.256,2.514L-9.16-4.872l-.681,1.107,2.708,1.67-2.1,1.069.417.817,2.6-1.322,2.3,1.42a1.952,1.952,0,0,0-.04.376,2.077,2.077,0,0,0,.04.388l-2.4,1.455L-9.335.93l-.335.854,2.357.92-2.7,1.632.675,1.115L-6.612,3.8l-.011,2.358.919,0,.009-2.917,2.46-1.49a1.806,1.806,0,0,0,.494.29V4.839L-5.3,6.807l.558.73,2-1.54v3.15h1.3V5.966L.576,7.193l.477-.784-2.49-1.517V2.074a1.908,1.908,0,0,0,.562-.307L1.411,3.18,1.393,6.244l.917.005.013-2.506L5.271,5.563l.684-1.109Z" transform="translate(10.01 8.614)"/>
        </g>
      </g>
    </g>
    <g id="Group_17" data-name="Group 17" transform="translate(85 73.863)">
      <g id="Group_16" data-name="Group 16" class="cls-4" transform="translate(0 0)">
        <g id="Group_13" data-name="Group 13" transform="translate(0 0)">
          <path id="Path_210" data-name="Path 210" class="cls-1" d="M-11.042-6.21a2.443,2.443,0,0,1-.544,1.771,2.38,2.38,0,0,1-1.747.549h-6.834V-5.526h5.833a3.28,3.28,0,0,0,.37-.019,1.1,1.1,0,0,0,.313-.082.53.53,0,0,0,.231-.188.564.564,0,0,0,.087-.327.549.549,0,0,0-.12-.37.685.685,0,0,0-.313-.2,1.688,1.688,0,0,0-.4-.076q-.207-.014-.506-.015-.183-.009-1.03-.038-1.328-.048-1.665-.062L-18-6.937c-.2-.009-.369-.021-.51-.033a1.888,1.888,0,0,1-1.531-.7,2.564,2.564,0,0,1-.327-1.434,2.858,2.858,0,0,1,.453-1.762,1.78,1.78,0,0,1,1.5-.587h7.094V-9.82h-5.833A2.9,2.9,0,0,0-17.5-9.8a.978.978,0,0,0-.289.082.515.515,0,0,0-.217.188.591.591,0,0,0-.082.327.472.472,0,0,0,.26.481,1.823,1.823,0,0,0,.722.116h.4q.173.009,1.011.038,1.155.038,1.6.058l.756.033c.205.01.375.021.51.033a1.7,1.7,0,0,1,1.482.77,3.13,3.13,0,0,1,.308,1.463" transform="translate(20.37 11.456)"/>
        </g>
        <g id="Group_14" data-name="Group 14" transform="translate(10.444 0)">
          <path id="Path_211" data-name="Path 211" class="cls-1" d="M-7.578,0h3.128L-8.771,3.648l4.88,3.917H-7.308l-4.313-3.917Zm-4.043,7.566h-2.358V0h2.358Z" transform="translate(13.979 0)"/>
        </g>
        <path id="Path_212" data-name="Path 212" class="cls-1" d="M50.559-9.238H48.2V-16.8h2.358Z" transform="translate(-26.129 16.804)"/>
        <g id="Group_15" data-name="Group 15" transform="translate(26.46 0.062)">
          <path id="Path_213" data-name="Path 213" class="cls-1" d="M-73.966-5.731a3.935,3.935,0,0,0,1.121-.135,1.587,1.587,0,0,0,.718-.423,1.74,1.74,0,0,0,.394-.761,4.576,4.576,0,0,0,.125-1.164,3.514,3.514,0,0,0-.158-1.146,1.535,1.535,0,0,0-.5-.717,2.124,2.124,0,0,0-.866-.38,6.317,6.317,0,0,0-1.328-.116h-6.276v7.566h2.358v-5.68h3.744a.917.917,0,0,1,.607.217.688.688,0,0,1,.26.553.692.692,0,0,1-.269.588,1.016,1.016,0,0,1-.626.2h-3.388l4.552,4.12h2.619l-3.09-2.686Zm8.307-1.858L-62.8-6.163V-5.3a.374.374,0,0,1-.164.314.927.927,0,0,1-.539.12h-4.081a1.258,1.258,0,0,1-.554-.081.379.379,0,0,1-.139-.353V-8.32a.335.335,0,0,1,.164-.28.939.939,0,0,1,.529-.116h6.806v-1.857h-7.066a2.818,2.818,0,0,0-1.876.529,1.94,1.94,0,0,0-.616,1.559V-5a2.5,2.5,0,0,0,.106.794,1.29,1.29,0,0,0,.394.563,1.787,1.787,0,0,0,.529.371,2.755,2.755,0,0,0,.74.192A10.808,10.808,0,0,0-67.46-3q.654.019,1.906.019T-63.643-3a10.981,10.981,0,0,0,1.116-.082,2.973,2.973,0,0,0,.76-.192,1.859,1.859,0,0,0,.554-.371,1.437,1.437,0,0,0,.361-.573,2.591,2.591,0,0,0,.1-.784v-2.59Zm-23.371-2.983L-93.18-3.006h2.618l.7-1.29h0L-89-5.923l.016-.029.19-.362h0l1.252-2.334,1.463,2.724H-88.6L-89.391-4.3h4.181l.693,1.29H-81.9l-4.11-7.566ZM-128.91-6.163V-5.3a.374.374,0,0,1-.164.314.929.929,0,0,1-.539.12H-133.7a1.261,1.261,0,0,1-.554-.081c-.093-.055-.139-.172-.139-.353V-8.32a.336.336,0,0,1,.163-.28.944.944,0,0,1,.53-.116h6.805v-1.857h-7.066a2.823,2.823,0,0,0-1.877.529,1.943,1.943,0,0,0-.616,1.559V-5a2.524,2.524,0,0,0,.106.794,1.3,1.3,0,0,0,.4.563,1.794,1.794,0,0,0,.529.371,2.755,2.755,0,0,0,.741.192A10.778,10.778,0,0,0-133.57-3q.654.019,1.906.019t1.91-.019a10.982,10.982,0,0,0,1.117-.082,2.972,2.972,0,0,0,.76-.192,1.868,1.868,0,0,0,.554-.371,1.438,1.438,0,0,0,.361-.573,2.592,2.592,0,0,0,.1-.784v-2.59h-4.909Zm28.983.038-.029-.038-2.089-4.409h-3.687v7.566h2.194V-8.512h.029l2.791,5.506h1.589l2.753-5.506h.038v5.506h2.185v-7.566h-3.677Zm-18.1.6a.43.43,0,0,1-.188.361,1.038,1.038,0,0,1-.611.139h-3.35a.974.974,0,0,1-.582-.139.43.43,0,0,1-.188-.361v-5.043h-2.32V-5.2a2.973,2.973,0,0,0,.11.867,1.627,1.627,0,0,0,.418.664,3.487,3.487,0,0,0,.544.424,1.8,1.8,0,0,0,.606.2,7.791,7.791,0,0,0,1.055.087q.674.019,2.051.019t2.055-.019a7.743,7.743,0,0,0,1.049-.087,1.808,1.808,0,0,0,.6-.2,3.667,3.667,0,0,0,.543-.429,1.62,1.62,0,0,0,.419-.664A2.971,2.971,0,0,0-115.7-5.2v-5.371h-2.32Zm6-5.043h-2.359v7.566h7.47V-4.835h-5.111Z" transform="translate(136.448 10.572)"/>
        </g>
      </g>
    </g>
  </g>
</svg>
