<svg xmlns="http://www.w3.org/2000/svg" xmlns:xlink="http://www.w3.org/1999/xlink" viewBox="0 0 87.873 55.878">
  <defs>
    <style>
      .cls-1 {
        fill: #2b2b2b;
      }

      .cls-2 {
        clip-path: url(#clip-path);
      }
    </style>
    <clipPath id="clip-path">
      <path id="Path_200" data-name="Path 200" class="cls-1" d="M0-42.391H87.873V13.487H0Z" transform="translate(0 42.391)"/>
    </clipPath>
  </defs>
  <g id="Group_4" data-name="Group 4" transform="translate(0)">
    <g id="Group_3" data-name="Group 3" class="cls-2">
      <g id="Group_1" data-name="Group 1" transform="translate(0 19.113)">
        <path id="Path_198" data-name="Path 198" class="cls-1" d="M20.308,5.106c-.956-1.334-1.868-3.239-3.388-4.039a19.828,19.828,0,0,1-4.5-2.922c-1.6-1.42-4.818-2.2-6.477-3.017C3.466-6.085,2.256-7.108.733-7.374a6.632,6.632,0,0,1-2.976-1.77L-7.792-6.892s5.389.082,5.509.334c.158.349,2.858,2.311,1.406,3.287S-7.62-4.25-9.908-5.849s-11.885-7.18-14.629-9.312-7.776,0-10.75,1.863S-44.887-7.177-45.8-6.91-59.79,7.2-59.79,7.2s-6.173,11.075-3.257,8.743S-59,9.648-56.6,7.654c1.322-1.1,1.915-1.689,3.123-1.838l.08-.082S-50.78,1.521-48.489.026s3.175-3.365,5.067-4.264,3.152-.877,4.745-2.171,1.6-2.573,3.39-3.274c1.6-.62,3.742-1.24,4.686-1.577-3.071,2.288-9.024,7.347-6.75,10.624,3.016,4.342,17.733,3.858,7.842,10.978a176.311,176.311,0,0,1-15.8,10.375s6.153-1.087,8.567-2.656,4.317-1.613,5.887-2.942a26.286,26.286,0,0,1,5.306-3.7c1.81-.842,3.46-2.491,3.46-4.181s1.608-2.611-1.529-4.184-5.72-2.969-7.4-3.377c-3.642-.888-4.5-2.088-3.025-4.351,1.827-2.8,1.773-3.009,1.96-3.168,1.312-1.115,2.776-3.052,5.336-3.46.145.037.293.07.435.119,1.294-.65,7.341,4.88,8.92,5.867,1.6,1,5.662,2.261,8.348,3.591A75,75,0,0,0,.25,1.393L4.841-2.322A7.734,7.734,0,0,1,6.723.2C7.01,1.264,6.835,2.4,5.3,3.855a26.539,26.539,0,0,0-2.518,2.8C1.3,8.317,1.524,8.383.209,9.116c-1.13.631-3.62,1.951-4.068,2.178.523-.219,4.152-.79,5.1-1.114A4.437,4.437,0,0,0,3.35,8.054c.457-.8,1.95-.935,3.431-2.331S7.529,4.463,8.037,2.4,7.983,1.4,9.526,1s4.836,1.71,5.6,2.149,1.028.091,1.867.492S19.32,5.859,20.5,6.7a38.722,38.722,0,0,1,3.543,3.322C23.472,8.03,21.262,6.433,20.309,5.1" transform="translate(63.83 16.049)"/>
      </g>
      <g id="Group_2" data-name="Group 2" transform="translate(65.148 0.001)">
        <path id="Path_199" data-name="Path 199" class="cls-1" d="M3.185,2.741,5.4,1.9l-.33-.853L2.2,2.137-.18.669a1.828,1.828,0,0,0,.043-.4A1.946,1.946,0,0,0-.171-.1L1.975-1.4,4.7.019,5.123-.8,2.9-1.956l2.965-1.8L5.187-4.863,2.4-3.175l.26-2.352-.912-.1L1.407-2.574-.845-1.211a1.923,1.923,0,0,0-.592-.327V-4.076l2.619-1.6L.7-6.457l-2.139,1.31V-8.614h-1.3v3.257L-4.616-6.8l-.559.725L-2.74-4.2v2.682a1.9,1.9,0,0,0-.5.3L-5.493-2.611l-.328-3.214-.913.094.256,2.514L-9.16-4.872l-.681,1.107L-7.133-2.1l-2.1,1.069.417.817,2.6-1.322,2.3,1.42a1.952,1.952,0,0,0-.04.376,2.077,2.077,0,0,0,.04.388l-2.4,1.455L-9.335.93l-.335.854,2.357.92-2.7,1.632.675,1.115L-6.612,3.8l-.011,2.358H-5.7L-5.7,3.241l2.46-1.49a1.806,1.806,0,0,0,.494.29v2.8L-5.3,6.807l.558.73,2-1.54v3.15h1.3V5.966L.576,7.193l.477-.784-2.49-1.517V2.074a1.908,1.908,0,0,0,.562-.307L1.411,3.18,1.393,6.244l.917.005.013-2.506,2.948,1.82.684-1.109Z" transform="translate(10.01 8.614)"/>
      </g>
    </g>
  </g>
</svg>
