<svg xmlns="http://www.w3.org/2000/svg" xmlns:xlink="http://www.w3.org/1999/xlink" viewBox="0 0 102.156 7.7">
  <defs>
    <style>
      .cls-1 {
        fill: #c91100;
      }

      .cls-2 {
        clip-path: url(#clip-path);
      }
    </style>
    <clipPath id="clip-path">
      <path id="Path_214" data-name="Path 214" class="cls-1" d="M0-16.805H102.156v7.7H0Z" transform="translate(0 16.805)"/>
    </clipPath>
  </defs>
  <g id="skigulmarg" class="cls-2">
    <g id="Group_13" data-name="Group 13">
      <path id="Path_210" data-name="Path 210" class="cls-1" d="M-11.042-6.21a2.443,2.443,0,0,1-.544,1.771,2.38,2.38,0,0,1-1.747.549h-6.834V-5.526h5.833a3.28,3.28,0,0,0,.37-.019,1.1,1.1,0,0,0,.313-.082.53.53,0,0,0,.231-.188.564.564,0,0,0,.087-.327.549.549,0,0,0-.12-.37.685.685,0,0,0-.313-.2,1.688,1.688,0,0,0-.4-.076q-.207-.014-.506-.015-.183-.009-1.03-.038L-17.367-6.9-18-6.937c-.2-.009-.369-.021-.51-.033a1.888,1.888,0,0,1-1.531-.7A2.564,2.564,0,0,1-20.368-9.1a2.858,2.858,0,0,1,.453-1.762,1.78,1.78,0,0,1,1.5-.587h7.094V-9.82h-5.833a2.9,2.9,0,0,0-.346.02.978.978,0,0,0-.289.082.515.515,0,0,0-.217.188.591.591,0,0,0-.082.327.472.472,0,0,0,.26.481,1.823,1.823,0,0,0,.722.116h.4q.173.009,1.011.038,1.155.038,1.6.058l.756.033q.307.015.51.033a1.7,1.7,0,0,1,1.482.77,3.13,3.13,0,0,1,.308,1.463" transform="translate(20.37 11.456)"/>
    </g>
    <g id="Group_14" data-name="Group 14" transform="translate(10.444)">
      <path id="Path_211" data-name="Path 211" class="cls-1" d="M-7.578,0H-4.45L-8.771,3.648l4.88,3.917H-7.308l-4.313-3.917Zm-4.043,7.566h-2.358V0h2.358Z" transform="translate(13.979)"/>
    </g>
    <path id="Path_212" data-name="Path 212" class="cls-1" d="M50.559-9.238H48.2V-16.8h2.358Z" transform="translate(-26.129 16.804)"/>
    <g id="Group_15" data-name="Group 15" transform="translate(26.46 0.062)">
      <path id="Path_213" data-name="Path 213" class="cls-1" d="M-73.966-5.731a3.935,3.935,0,0,0,1.121-.135,1.587,1.587,0,0,0,.718-.423,1.74,1.74,0,0,0,.394-.761,4.576,4.576,0,0,0,.125-1.164,3.514,3.514,0,0,0-.158-1.146,1.535,1.535,0,0,0-.5-.717,2.124,2.124,0,0,0-.866-.38,6.317,6.317,0,0,0-1.328-.116h-6.276v7.566h2.358v-5.68h3.744a.917.917,0,0,1,.607.217.688.688,0,0,1,.26.553.692.692,0,0,1-.269.588,1.016,1.016,0,0,1-.626.2H-78.05l4.552,4.12h2.619L-73.969-5.7Zm8.307-1.858L-62.8-6.163V-5.3a.374.374,0,0,1-.164.314.927.927,0,0,1-.539.12h-4.081a1.258,1.258,0,0,1-.554-.081.379.379,0,0,1-.139-.353V-8.32a.335.335,0,0,1,.164-.28.939.939,0,0,1,.529-.116h6.806v-1.857h-7.066a2.818,2.818,0,0,0-1.876.529,1.94,1.94,0,0,0-.616,1.559V-5a2.5,2.5,0,0,0,.106.794,1.29,1.29,0,0,0,.394.563,1.787,1.787,0,0,0,.529.371,2.755,2.755,0,0,0,.74.192A10.808,10.808,0,0,0-67.46-3q.654.019,1.906.019T-63.643-3a10.982,10.982,0,0,0,1.116-.082,2.973,2.973,0,0,0,.76-.192,1.859,1.859,0,0,0,.554-.371,1.437,1.437,0,0,0,.361-.573,2.591,2.591,0,0,0,.1-.784v-2.59ZM-89.03-10.572l-4.15,7.566h2.618l.7-1.29h0L-89-5.923l.016-.029.19-.362h0l1.252-2.334,1.463,2.724H-88.6L-89.391-4.3h4.181l.693,1.29H-81.9l-4.11-7.566Zm-39.88,4.409V-5.3a.374.374,0,0,1-.164.314.929.929,0,0,1-.539.12H-133.7a1.261,1.261,0,0,1-.554-.081c-.093-.055-.139-.172-.139-.353V-8.32a.336.336,0,0,1,.163-.28.944.944,0,0,1,.53-.116h6.805v-1.857h-7.066a2.823,2.823,0,0,0-1.877.529,1.943,1.943,0,0,0-.616,1.559V-5a2.524,2.524,0,0,0,.106.794,1.3,1.3,0,0,0,.4.563,1.794,1.794,0,0,0,.529.371,2.755,2.755,0,0,0,.741.192A10.778,10.778,0,0,0-133.57-3q.654.019,1.906.019t1.91-.019a10.982,10.982,0,0,0,1.117-.082,2.972,2.972,0,0,0,.76-.192,1.868,1.868,0,0,0,.554-.371,1.438,1.438,0,0,0,.361-.573,2.592,2.592,0,0,0,.1-.784v-2.59h-4.909Zm28.983.038-.029-.038-2.089-4.409h-3.687v7.566h2.194V-8.512h.029l2.791,5.506h1.589l2.753-5.506h.038v5.506h2.185v-7.566H-97.83Zm-18.1.6a.43.43,0,0,1-.188.361,1.038,1.038,0,0,1-.611.139h-3.35a.974.974,0,0,1-.582-.139.43.43,0,0,1-.188-.361v-5.043h-2.32V-5.2a2.973,2.973,0,0,0,.11.867,1.627,1.627,0,0,0,.418.664,3.487,3.487,0,0,0,.544.424,1.8,1.8,0,0,0,.606.2,7.791,7.791,0,0,0,1.055.087q.674.019,2.051.019t2.055-.019a7.743,7.743,0,0,0,1.049-.087,1.808,1.808,0,0,0,.6-.2,3.667,3.667,0,0,0,.543-.429,1.62,1.62,0,0,0,.419-.664A2.971,2.971,0,0,0-115.7-5.2v-5.371h-2.32Zm6-5.043h-2.359V-3h7.47V-4.835h-5.111Z" transform="translate(136.448 10.572)"/>
    </g>
  </g>
</svg>
