<svg xmlns="http://www.w3.org/2000/svg" viewBox="0 0 15.968 17.761">
  <defs>
    <style>
      .cls-1 {
        fill: #c91100;
      }
    </style>
  </defs>
  <path id="Snowflake" class="cls-1" d="M3.185,2.741,5.4,1.9l-.33-.853L2.2,2.137-.18.669a1.828,1.828,0,0,0,.043-.4A1.946,1.946,0,0,0-.171-.1L1.975-1.4,4.7.019,5.123-.8,2.9-1.956l2.965-1.8L5.187-4.863,2.4-3.175l.26-2.352-.912-.1L1.407-2.574-.845-1.211a1.923,1.923,0,0,0-.592-.327V-4.076l2.619-1.6L.7-6.457l-2.139,1.31V-8.614h-1.3v3.257L-4.616-6.8l-.559.725L-2.74-4.2v2.682a1.9,1.9,0,0,0-.5.3L-5.493-2.611l-.328-3.214-.913.094.256,2.514L-9.16-4.872l-.681,1.107L-7.133-2.1l-2.1,1.069.417.817,2.6-1.322,2.3,1.42a1.952,1.952,0,0,0-.04.376,2.077,2.077,0,0,0,.04.388l-2.4,1.455L-9.335.93l-.335.854,2.357.92-2.7,1.632.675,1.115L-6.612,3.8l-.011,2.358H-5.7L-5.7,3.241l2.46-1.49a1.806,1.806,0,0,0,.494.29v2.8L-5.3,6.807l.558.73,2-1.54v3.15h1.3V5.966L.576,7.193l.477-.784-2.49-1.517V2.074a1.908,1.908,0,0,0,.562-.307L1.411,3.18,1.393,6.244l.917.005.013-2.506,2.948,1.82.684-1.109Z" transform="translate(10.013 8.614)"/>
</svg>
