<svg xmlns="http://www.w3.org/2000/svg" viewBox="0 0 124.32 31.75"><defs><style>.cls-1{fill:#231f20;}</style></defs><title>Asset 2</title><g id="Layer_2" data-name="Layer 2"><g id="Layer_1-2" data-name="Layer 1"><path class="cls-1" d="M38.79,29.58H38v2.13h-.45V29.58h-.74v-.46h1.94Z"/><path class="cls-1" d="M42.47,31.71H42V30.57H40.85v1.12h-.46V29.13h.46v1H42v-1h.46Z"/><path class="cls-1" d="M44.69,31.71h-.46V29.13h.46Z"/><path class="cls-1" d="M48.54,31.71h-.4L46.91,30v1.74h-.45V29.13h.45l1.19,1.72V29.13h.44Z"/><path class="cls-1" d="M52.31,31.71h-.53l-.66-1.34-.49.62v.72h-.46V29.13h.46v1.1l.91-1.1h.6l-.69.84Z"/><path class="cls-1" d="M55.9,31.71H54V29.13h1.89v.46H54.44v.48h.77v.47h-.77v.71H55.9Z"/><path class="cls-1" d="M60.08,31.71h-.45V30.13l-.76,1.58-.76-1.58v1.58h-.45V29.13h.45l.76,1.53.76-1.53h.45Z"/><path class="cls-1" d="M63,30.69H62.3v1h-.46V29.13H63a.89.89,0,0,1,.44.11.75.75,0,0,1,.4.68.73.73,0,0,1-.4.7A1.09,1.09,0,0,1,63,30.69Zm.36-.78a.31.31,0,0,0-.1-.24.39.39,0,0,0-.27-.09H62.3v.64H63a.4.4,0,0,0,.27-.09A.29.29,0,0,0,63.4,29.92Z"/><path class="cls-1" d="M66.09,31.71h-.46V29.13h.46Z"/><path class="cls-1" d="M69.94,31.71h-.52l-.42-1h-.69v1h-.46V29.13H69a.88.88,0,0,1,.44.11.75.75,0,0,1,.4.68.74.74,0,0,1-.42.69Zm-.52-1.79a.31.31,0,0,0-.1-.24.4.4,0,0,0-.27-.09h-.73v.64H69a.4.4,0,0,0,.27-.09A.29.29,0,0,0,69.42,29.92Z"/><path class="cls-1" d="M73.57,31.71H71.64V29.13h1.88v.46H72.11v.48h.77v.47h-.77v.71h1.46Z"/><path class="cls-1" d="M75.72,31.5a.24.24,0,0,1-.08.18.26.26,0,0,1-.19.08.26.26,0,0,1-.25-.25.25.25,0,0,1,.08-.19.24.24,0,0,1,.18-.08.26.26,0,0,1,.26.26Z"/><path class="cls-1" d="M79.43,31.18a1.12,1.12,0,0,1-1,.57,1,1,0,0,1-.8-.37,1.51,1.51,0,0,1-.29-1,1.49,1.49,0,0,1,.29-1,1,1,0,0,1,.8-.36,1.12,1.12,0,0,1,1,.57l-.42.21a.68.68,0,0,0-.58-.32.54.54,0,0,0-.46.26,1.08,1.08,0,0,0-.17.6,1.06,1.06,0,0,0,.17.65.54.54,0,0,0,.46.23A.6.6,0,0,0,79,31Z"/><path class="cls-1" d="M83.23,30.4a1.54,1.54,0,0,1-.29,1,.93.93,0,0,1-.78.37,1,1,0,0,1-.83-.43,1.54,1.54,0,0,1-.26-.91,1.49,1.49,0,0,1,.29-1,1,1,0,0,1,.8-.36,1,1,0,0,1,.77.36A1.48,1.48,0,0,1,83.23,30.4Zm-.46,0a1.11,1.11,0,0,0-.16-.64.51.51,0,0,0-.45-.23.53.53,0,0,0-.46.23,1.08,1.08,0,0,0-.17.64,1.1,1.1,0,0,0,.17.65.53.53,0,0,0,.46.23.51.51,0,0,0,.49-.29A1.23,1.23,0,0,0,82.77,30.41Z"/><path class="cls-1" d="M87.36,31.71h-.45V30.13l-.76,1.58-.76-1.58v1.58h-.45V29.13h.45l.76,1.53.76-1.53h.45Z"/><path class="cls-1" d="M13,23.29H.27V3.53H13V6.95H3.7V11.7h7V15.1h-7v4.77H13v3.42Z"/><path class="cls-1" d="M95.55,23.29H82.83V3.53H95.55V6.95H86.26V11.7h7V15.1h-7v4.77h9.29v3.42Z"/><path class="cls-1" d="M42.36,23.29H38.95V3.53H50.17L53,6.44v5.75L50.17,15.1h-7.8v8.19Zm0-11.58h6.39l.9-.86v-3l-.9-.86H42.36V11.7Z"/><path class="cls-1" d="M60.18,23.29h-3.4V3.53h3.4V23.29Z"/><path class="cls-1" d="M80.48,23.29h-3.9l-4.43-8.18H67.52v8.18H64.1V3.53H75.37l2.91,2.9v5.78l-2.59,2.57,4.8,8.5Zm-13-11.58H74l.85-.79V7.81L74,6.95H67.52V11.7Z"/><path class="cls-1" d="M35.21,23.29H31.79V12.64L27.23,23.29H24.71L20.14,12.67V23.29H16.73V3.53H20l6,13.79,6-13.79h3.29V23.29Z"/><polygon class="cls-1" points="118.56 7.52 118.56 18.31 117.68 18.31 117.68 4.01 115.06 0 112.42 4.01 112.42 18.31 111.54 18.31 111.54 7.52 105.98 3.36 105.98 19.26 110.64 23.29 119.46 23.29 124.12 19.26 124.12 3.37 118.56 7.52"/><rect class="cls-1" x="90.87" y="30.03" width="33.46" height="0.78"/><rect class="cls-1" y="30.03" width="33.45" height="0.78"/></g></g></svg>
